<svg width="44" height="55" viewBox="0 0 44 55" fill="none" xmlns="http://www.w3.org/2000/svg">
<path d="M42.5872 18.5399C42.2732 18.7839 36.7392 21.8999 36.7392 28.8279C36.7392 36.8429 43.7812 39.6779 43.9922 39.7479C43.9602 39.9209 42.8732 43.6309 40.2792 47.4119C37.9662 50.7389 35.5492 54.0599 31.8752 54.0599C28.1992 54.0599 27.2542 51.9269 23.0112 51.9269C18.8762 51.9269 17.4062 54.1299 14.0442 54.1299C10.6832 54.1299 8.33719 51.0519 5.64019 47.2709C2.51619 42.8319 -0.0078125 35.9359 -0.0078125 29.3909C-0.0078125 18.8909 6.82419 13.3229 13.5472 13.3229C17.1202 13.3229 20.0972 15.6669 22.3412 15.6669C24.4762 15.6669 27.8052 13.1829 31.8692 13.1829C33.4092 13.1829 38.9442 13.3229 42.5872 18.5399ZM29.9402 8.73788C31.6202 6.74588 32.8102 3.98088 32.8102 1.21588C32.8102 0.831883 32.7772 0.442883 32.7072 0.129883C29.9722 0.232883 26.7182 1.94988 24.7572 4.22388C23.2172 5.97388 21.7782 8.73788 21.7782 11.5409C21.7782 11.9629 21.8482 12.3839 21.8812 12.5189C22.0542 12.5509 22.3352 12.5889 22.6162 12.5889C25.0702 12.5889 28.1562 10.9469 29.9402 8.73888V8.73788Z" fill="white"/>
</svg>
