<svg width="36" height="55" viewBox="0 0 36 55" fill="none" xmlns="http://www.w3.org/2000/svg">
<path d="M17.912 0.129883L26.006 8.22288L17.912 16.3169L9.819 8.22288L17.912 0.129883ZM17.912 19.3679L26.006 27.4609L17.912 35.5549L9.819 27.4609L17.912 19.3679ZM17.912 37.9429L26.006 46.0369L17.912 54.1299L9.819 46.0369L17.912 37.9429ZM27.907 9.46088L36 17.5549L27.907 25.6479L19.813 17.5549L27.907 9.46088ZM8.093 9.46088L16.187 17.5549L8.093 25.6479L0 17.5549L8.093 9.46088ZM27.907 28.6999L36 36.7919L27.907 44.8849L19.813 36.7919L27.907 28.6979V28.6999ZM8.093 28.6999L16.187 36.7929L8.093 44.8859L0 36.7929L8.093 28.6999Z" fill="white"/>
</svg>
